<svg width="30" height="30" viewBox="0 0 30 30" fill="none" xmlns="http://www.w3.org/2000/svg">
<path d="M15.0001 19.3138C16.8021 19.3138 18.2353 17.8784 18.2353 16.0785C18.2353 14.2787 16.8021 12.8433 15.0001 12.8433C13.198 12.8433 11.7648 14.2787 11.7648 16.0785C11.7648 17.8784 13.198 19.3138 15.0001 19.3138Z" fill="#D8D8D8"/>
<path d="M24.5086 14.1223C24.2555 12.88 23.7589 11.7001 23.0473 10.6508C22.3502 9.61707 21.4604 8.72732 20.4267 8.03022C19.3761 7.32113 18.1967 6.82469 16.9552 6.56895C16.3029 6.43645 15.6387 6.3714 14.9731 6.37484V4.21582L10.6863 7.45111L14.9731 10.6864V8.53169C15.4951 8.52954 16.017 8.57915 16.5206 8.68267C17.4855 8.88151 18.4022 9.26729 19.2189 9.81826C20.0239 10.3609 20.7167 11.0536 21.2593 11.8586C22.1017 13.1046 22.551 14.5746 22.5491 16.0785C22.5498 17.0879 22.3481 18.0872 21.9559 19.0173C21.7663 19.4657 21.5337 19.8948 21.2614 20.2984C20.9897 20.7008 20.6799 21.0761 20.3361 21.4189C19.2921 22.4608 17.9669 23.1755 16.5228 23.4755C15.5186 23.6791 14.4837 23.6791 13.4795 23.4755C12.5141 23.2765 11.5971 22.8903 10.7802 22.3388C9.97614 21.7966 9.28412 21.1046 8.74193 20.3006C7.90051 19.0533 7.45099 17.5831 7.45105 16.0785H5.29419C5.29403 18.0131 5.87199 19.9036 6.95389 21.5074C7.65263 22.5384 8.54126 23.427 9.57232 24.1258C11.1745 25.2101 13.0655 25.788 15.0001 25.7844C15.6571 25.785 16.3126 25.7189 16.9563 25.5871C18.1974 25.3312 19.3764 24.8347 20.4267 24.1258C20.942 23.7776 21.4227 23.3807 21.8621 22.9406C22.3027 22.5009 22.6999 22.0199 23.0484 21.5041C24.1319 19.9025 24.7094 18.0123 24.7059 16.0785C24.7065 15.4215 24.6404 14.766 24.5086 14.1223Z" fill="#D8D8D8"/>
</svg>
